<svg width="254" height="36" viewBox="0 0 254 36" fill="none" xmlns="http://www.w3.org/2000/svg">
    <path d="M30.696 0.919998C31.592 0.919998 32.312 1.208 32.856 1.784C33.4 2.328 33.672 3.064 33.672 3.992V32.408C33.672 33.304 33.416 34.008 32.904 34.52C32.392 35.032 31.72 35.288 30.888 35.288C30.056 35.288 29.4 35.032 28.92 34.52C28.44 34.008 28.2 33.304 28.2 32.408V12.632L20.04 28.088C19.656 28.792 19.24 29.32 18.792 29.672C18.344 29.992 17.816 30.152 17.208 30.152C16.6 30.152 16.072 29.992 15.624 29.672C15.176 29.352 14.76 28.824 14.376 28.088L6.168 12.872V32.408C6.168 33.272 5.912 33.976 5.4 34.52C4.92 35.032 4.264 35.288 3.432 35.288C2.6 35.288 1.944 35.032 1.464 34.52C0.984 34.008 0.744 33.304 0.744 32.408V3.992C0.744 3.064 1 2.328 1.512 1.784C2.056 1.208 2.776 0.919998 3.672 0.919998C4.92 0.919998 5.896 1.608 6.6 2.984L17.256 23.288L27.864 2.984C28.568 1.608 29.512 0.919998 30.696 0.919998ZM51.1834 35.384C48.7834 35.384 46.6714 34.888 44.8474 33.896C43.0554 32.904 41.6634 31.48 40.6714 29.624C39.6794 27.768 39.1834 25.608 39.1834 23.144C39.1834 20.68 39.6794 18.536 40.6714 16.712C41.6634 14.856 43.0554 13.432 44.8474 12.44C46.6714 11.448 48.7834 10.952 51.1834 10.952C53.5834 10.952 55.6794 11.448 57.4714 12.44C59.2954 13.432 60.6874 14.856 61.6474 16.712C62.6394 18.536 63.1354 20.68 63.1354 23.144C63.1354 25.608 62.6394 27.768 61.6474 29.624C60.6874 31.48 59.2954 32.904 57.4714 33.896C55.6794 34.888 53.5834 35.384 51.1834 35.384ZM51.1354 30.728C53.0874 30.728 54.5754 30.088 55.5994 28.808C56.6234 27.528 57.1354 25.64 57.1354 23.144C57.1354 20.68 56.6234 18.808 55.5994 17.528C54.5754 16.216 53.1034 15.56 51.1834 15.56C49.2634 15.56 47.7754 16.216 46.7194 17.528C45.6954 18.808 45.1834 20.68 45.1834 23.144C45.1834 25.64 45.6954 27.528 46.7194 28.808C47.7434 30.088 49.2154 30.728 51.1354 30.728ZM84.0818 12.776C84.3378 12.2 84.6738 11.768 85.0898 11.48C85.5378 11.192 86.0178 11.048 86.5298 11.048C87.2658 11.048 87.9218 11.304 88.4978 11.816C89.1058 12.296 89.4098 12.904 89.4098 13.64C89.4098 14.024 89.3138 14.408 89.1218 14.792L80.2418 33.368C79.9538 33.976 79.5378 34.44 78.9938 34.76C78.4818 35.08 77.9058 35.24 77.2657 35.24C76.6578 35.24 76.0658 35.08 75.4898 34.76C74.9458 34.44 74.5298 33.976 74.2418 33.368L65.3138 14.792C65.1538 14.472 65.0738 14.104 65.0738 13.688C65.0738 12.952 65.3778 12.328 65.9858 11.816C66.6258 11.304 67.3458 11.048 68.1458 11.048C69.2978 11.048 70.1458 11.608 70.6898 12.728L77.4098 27.56L84.0818 12.776ZM96.7523 35.288C95.8883 35.288 95.1683 35.048 94.5923 34.568C94.0483 34.056 93.7763 33.336 93.7763 32.408V13.88C93.7763 12.952 94.0483 12.248 94.5923 11.768C95.1683 11.288 95.8883 11.048 96.7523 11.048C97.6163 11.048 98.3363 11.288 98.9123 11.768C99.4883 12.248 99.7763 12.952 99.7763 13.88V32.408C99.7763 33.336 99.4883 34.056 98.9123 34.568C98.3363 35.048 97.6163 35.288 96.7523 35.288ZM96.7523 6.776C95.6643 6.776 94.8003 6.488 94.1603 5.912C93.5203 5.304 93.2003 4.52 93.2003 3.56C93.2003 2.6 93.5203 1.832 94.1603 1.256C94.8003 0.679999 95.6643 0.391999 96.7523 0.391999C97.8083 0.391999 98.6563 0.679999 99.2963 1.256C99.9683 1.832 100.304 2.6 100.304 3.56C100.304 4.52 99.9843 5.304 99.3443 5.912C98.7043 6.488 97.8403 6.776 96.7523 6.776ZM124.54 28.568C125.084 28.568 125.516 28.776 125.836 29.192C126.188 29.608 126.364 30.168 126.364 30.872C126.364 31.864 125.772 32.696 124.588 33.368C123.5 33.976 122.268 34.472 120.892 34.856C119.516 35.208 118.204 35.384 116.956 35.384C113.18 35.384 110.188 34.296 107.98 32.12C105.772 29.944 104.668 26.968 104.668 23.192C104.668 20.792 105.148 18.664 106.108 16.808C107.068 14.952 108.412 13.512 110.14 12.488C111.9 11.464 113.884 10.952 116.092 10.952C118.204 10.952 120.044 11.416 121.612 12.344C123.18 13.272 124.396 14.584 125.26 16.28C126.124 17.976 126.556 19.976 126.556 22.28C126.556 23.656 125.948 24.344 124.732 24.344H110.572C110.764 26.552 111.388 28.184 112.444 29.24C113.5 30.264 115.036 30.776 117.052 30.776C118.076 30.776 118.972 30.648 119.74 30.392C120.54 30.136 121.436 29.784 122.428 29.336C123.388 28.824 124.092 28.568 124.54 28.568ZM116.236 15.176C114.604 15.176 113.292 15.688 112.3 16.712C111.34 17.736 110.764 19.208 110.572 21.128H121.42C121.356 19.176 120.876 17.704 119.98 16.712C119.084 15.688 117.836 15.176 116.236 15.176Z" fill="white"/>
    <path d="M148.527 35C147.215 35 146.207 34.648 145.503 33.944C144.799 33.24 144.447 32.232 144.447 30.92V5.24C144.447 3.928 144.799 2.92 145.503 2.216C146.207 1.512 147.215 1.16 148.527 1.16H158.223C161.967 1.16 165.183 1.848 167.871 3.224C170.591 4.568 172.671 6.504 174.111 9.032C175.551 11.56 176.271 14.568 176.271 18.056C176.271 21.576 175.551 24.616 174.111 27.176C172.703 29.704 170.639 31.64 167.919 32.984C165.231 34.328 161.999 35 158.223 35H148.527ZM157.599 27.896C160.895 27.896 163.359 27.096 164.991 25.496C166.655 23.864 167.487 21.384 167.487 18.056C167.487 14.728 166.655 12.264 164.991 10.664C163.359 9.064 160.895 8.264 157.599 8.264H153.279V27.896H157.599ZM192.9 35.384C190.308 35.384 188.02 34.888 186.036 33.896C184.084 32.872 182.564 31.432 181.476 29.576C180.42 27.72 179.892 25.544 179.892 23.048C179.892 20.552 180.42 18.392 181.476 16.568C182.564 14.712 184.084 13.288 186.036 12.296C187.988 11.304 190.276 10.808 192.9 10.808C195.524 10.808 197.812 11.304 199.764 12.296C201.716 13.288 203.22 14.712 204.276 16.568C205.364 18.392 205.908 20.552 205.908 23.048C205.908 25.544 205.364 27.72 204.276 29.576C203.22 31.432 201.716 32.872 199.764 33.896C197.812 34.888 195.524 35.384 192.9 35.384ZM192.9 29C195.94 29 197.46 27.016 197.46 23.048C197.46 19.08 195.94 17.096 192.9 17.096C189.86 17.096 188.34 19.08 188.34 23.048C188.34 27.016 189.86 29 192.9 29ZM221.153 35.384C217.313 35.384 214.273 34.296 212.033 32.12C209.793 29.944 208.673 26.984 208.673 23.24C208.673 20.776 209.217 18.6 210.305 16.712C211.393 14.824 212.913 13.368 214.865 12.344C216.849 11.32 219.105 10.808 221.633 10.808C222.977 10.808 224.321 10.984 225.665 11.336C227.009 11.688 228.193 12.184 229.217 12.824C230.209 13.432 230.705 14.36 230.705 15.608C230.705 16.6 230.465 17.416 229.985 18.056C229.537 18.664 228.945 18.968 228.209 18.968C227.729 18.968 227.265 18.904 226.817 18.776C226.369 18.616 225.873 18.392 225.329 18.104C224.689 17.816 224.145 17.608 223.697 17.48C223.249 17.32 222.753 17.24 222.209 17.24C219.041 17.24 217.457 19.176 217.457 23.048C217.457 24.968 217.857 26.44 218.657 27.464C219.489 28.456 220.673 28.952 222.209 28.952C222.753 28.952 223.249 28.888 223.697 28.76C224.177 28.6 224.705 28.376 225.281 28.088C225.921 27.8 226.433 27.592 226.817 27.464C227.233 27.304 227.681 27.224 228.161 27.224C228.897 27.224 229.489 27.544 229.937 28.184C230.417 28.792 230.657 29.592 230.657 30.584C230.657 31.192 230.529 31.752 230.273 32.264C230.017 32.744 229.665 33.112 229.217 33.368C227.009 34.712 224.321 35.384 221.153 35.384ZM243.089 35.384C240.945 35.384 239.137 35.224 237.665 34.904C236.193 34.584 234.897 34.072 233.777 33.368C233.329 33.144 232.977 32.76 232.721 32.216C232.465 31.672 232.337 31.064 232.337 30.392C232.337 29.528 232.561 28.824 233.009 28.28C233.489 27.704 234.081 27.416 234.785 27.416C235.265 27.416 235.713 27.48 236.129 27.608C236.545 27.704 237.057 27.88 237.665 28.136C238.689 28.488 239.585 28.76 240.353 28.952C241.153 29.144 242.161 29.24 243.377 29.24C244.241 29.24 244.913 29.128 245.393 28.904C245.905 28.648 246.161 28.296 246.161 27.848C246.161 27.496 246.033 27.224 245.777 27.032C245.553 26.84 245.105 26.664 244.433 26.504C243.761 26.312 242.625 26.056 241.025 25.736C238.177 25.192 236.113 24.376 234.833 23.288C233.585 22.168 232.961 20.6 232.961 18.584C232.961 17.112 233.409 15.784 234.305 14.6C235.233 13.416 236.497 12.488 238.097 11.816C239.697 11.144 241.489 10.808 243.473 10.808C244.913 10.808 246.305 10.984 247.649 11.336C249.025 11.688 250.241 12.184 251.297 12.824C252.289 13.4 252.785 14.328 252.785 15.608C252.785 16.504 252.545 17.256 252.065 17.864C251.585 18.472 250.993 18.776 250.289 18.776C249.457 18.776 248.465 18.504 247.313 17.96C246.545 17.608 245.857 17.352 245.249 17.192C244.673 17 243.985 16.904 243.185 16.904C242.385 16.904 241.761 17.032 241.313 17.288C240.865 17.512 240.641 17.848 240.641 18.296C240.641 18.808 240.945 19.208 241.553 19.496C242.193 19.784 243.441 20.104 245.297 20.456C248.401 21 250.593 21.832 251.873 22.952C253.153 24.04 253.793 25.624 253.793 27.704C253.793 30.04 252.817 31.912 250.865 33.32C248.945 34.696 246.353 35.384 243.089 35.384Z" fill="#F51313"/>
</svg>
